<?xml version="1.0" encoding="UTF-8"?>
<svg id="Layer_2" data-name="Layer 2" xmlns="http://www.w3.org/2000/svg" viewBox="0 0 458.52 128.71">
  <defs>
    <style>
      .cls-1 {
        fill: #121212;
        stroke-width: 0px;
      }
    </style>
  </defs>
  <g id="Layer_1-2" data-name="Layer 1">
    <g>
      <g>
        <path class="cls-1" d="m223.7,33.51c-4.93-2.99-10.62-4.49-17.05-4.49s-11.92,1.5-16.86,4.49c-4.93,2.99-8.8,7.13-11.6,12.42-2.8,5.29-4.2,11.33-4.2,18.15,0,5.16.81,9.9,2.44,14.23,1.62,4.33,3.9,8.1,6.83,11.32,2.93,3.22,6.38,5.7,10.36,7.45,3.98,1.75,8.36,2.63,13.13,2.63s9.07-.88,13.09-2.63c4.01-1.75,7.48-4.22,10.41-7.4,2.93-3.18,5.21-6.94,6.83-11.27s2.44-9.07,2.44-14.23c0-6.88-1.4-12.96-4.2-18.24-2.8-5.28-6.67-9.42-11.61-12.42Zm4.63,45.27c-2.1,4.33-5.02,7.72-8.74,10.17-3.73,2.45-8.04,3.68-12.94,3.68s-9.2-1.22-12.89-3.68c-3.69-2.45-6.57-5.83-8.64-10.12-2.07-4.3-3.1-9.25-3.1-14.85s1.02-10.39,3.06-14.56c2.04-4.17,4.9-7.43,8.6-9.79,3.69-2.35,8.02-3.53,12.99-3.53s9.31,1.18,13.04,3.53c3.72,2.36,6.62,5.64,8.69,9.84,2.07,4.2,3.1,9.04,3.1,14.52s-1.05,10.48-3.15,14.8Z"/>
        <polygon class="cls-1" points="260.33 29.97 252.5 29.97 252.5 98.74 256.51 98.74 260.33 98.74 295.67 98.74 295.67 91.86 260.33 91.86 260.33 29.97"/>
        <path class="cls-1" d="m336.36,29.97h-6.88l-26.55,68.77h7.55l7.87-20.92h31.34l7.87,20.92h8.02l-26.55-68.77h-2.67Zm-15.42,40.98l13.08-34.76,13.08,34.76h-26.16Z"/>
        <polygon class="cls-1" points="450.98 29.97 433.55 90.97 416.3 29.97 406.75 29.97 389.6 90.97 372.08 29.97 364.06 29.97 384.4 98.74 393.95 98.74 411.34 39.11 428.63 98.74 438.18 98.74 458.52 29.97 450.98 29.97"/>
      </g>
      <g>
        <path class="cls-1" d="m54.55,123.56c-11.66,3.82-28.05,4.54-34.67-7.88-1.15-.17-2.26-.39-3.34-.67,7.35,17.71,30.31,15.53,45.67,8.63-1.1-.52-2.19-1.05-3.29-1.62-1.46.56-2.93,1.08-4.37,1.54Z"/>
        <path class="cls-1" d="m21.08,113.99c7.04.79,13.45-.32,21.04-2.74-.84-.64-1.67-1.28-2.5-1.94-6.97,2.1-14.51,3.24-21.64,1.44h0c-1.59-6.65-.98-13.24,1.47-21.61-.69-.86-1.37-1.73-2.03-2.6-2.79,8.37-3.78,16.08-2.46,23.18,0,0,0,.01,0,.02C.55,103.87.3,85.95,6.72,69.73c-.57-1.1-1.11-2.2-1.62-3.29-9.25,20.59-7.02,44.96,15.98,47.54Z"/>
        <path class="cls-1" d="m105.62,120.04c-10.31,9.71-26.23,5.99-38.02,1.13,5.28-2.64,10.23-5.68,15.26-9.33-1-.38-2-.78-3.01-1.21-5.13,3.61-10.14,6.56-15.5,9.08,0,0,0,0,0,0-6.05-2.85-11.79-6.37-17.19-10.33,0,0,0,0,0,0,5.33-2.18,10.3-4.8,15.55-8.14-.8-.53-1.59-1.09-2.38-1.65-4.97,3.1-10.16,5.83-15.61,7.94,0,0-.01,0-.02,0,0,0,0,0,0,0-8.72-6.74-16.83-14.85-23.5-23.49,2.09-5.36,4.66-10.39,7.91-15.61-.58-.81-1.14-1.63-1.69-2.44-3.29,5.16-5.96,10.16-8.13,15.49-4.05-5.56-7.51-11.27-10.27-17.12,2.51-5.33,5.44-10.32,9.03-15.43-.43-1.01-.83-2.01-1.21-3.01-3.62,5.01-6.64,9.92-9.27,15.18C.58,44.42-.11,27.27,12.95,19.91c.17-1.13.39-2.22.67-3.28C-3.38,24.08-2.65,44.69,6.05,64.27c7.79,17.22,20.82,32.57,35.64,44.38,0,0,0,0,0,0,13.12,10.4,31.13,19.99,47.34,20.04,10.6.04,19.25-4.42,23.15-13.69-1.07.28-2.19.5-3.34.67-.87,1.62-1.95,3.09-3.23,4.37Z"/>
        <path class="cls-1" d="m126.17,73.35c-.71-2.28-1.57-4.59-2.54-6.9-.51,1.09-1.05,2.19-1.62,3.29,6.42,16.23,6.17,34.12-8.23,40.01,1.32-7.11.33-14.83-2.46-23.21-.66.87-1.34,1.74-2.03,2.6,2.45,8.38,3.06,14.96,1.47,21.62.03,0,.05-.02.08-.02-8.1,2.06-16.66.37-24.43-2.31.22.08.44.15.65.22,14.84-11.83,27.82-27.15,35.63-44.38,8.7-19.58,9.43-40.18-7.58-47.64.28,1.07.51,2.18.68,3.32,13.08,7.29,12.35,24.53,5.4,41.18-2.62-5.25-5.64-10.17-9.27-15.18-.38,1-.79,2.01-1.21,3.01,3.59,5.11,6.52,10.1,9.03,15.43-2.76,5.85-6.23,11.57-10.27,17.12-2.17-5.33-4.85-10.33-8.13-15.49-.55.82-1.12,1.63-1.69,2.44,3.25,5.22,5.82,10.24,7.91,15.61-6.63,8.61-14.87,16.83-23.49,23.49,0,0,0,0,0,0-6.06-2.36-11.82-5.46-17.28-9.01h.01c18.89-13.36,35.69-32.55,43.85-54.33,10.37-27.09-1.04-49.61-31.61-43.06-4.22.93-8.4,2.26-12.4,3.97,1.05.5,2.11,1.01,3.16,1.55C84.02.94,103.31-.54,109.78,15.04c-7.75-1.45-15.73,0-23.16,2.42.84.64,1.68,1.28,2.51,1.95,7.7-2.25,14.36-3.2,21.63-1.45,1.78,6.98.72,15.26-2.13,23.67-6.27-7.91-13.64-15.26-21.6-21.57,0,0,0,0,0,0-.82-.64-1.64-1.27-2.46-1.88,0,0,0,0-.01,0-6.27-4.75-13.04-8.83-20.18-12.1,0,0,0,0-.01,0,0,0,0,0-.01,0C48.55-1.52,22.43-5.15,15.76,15.83c0,0,0,0,0,.01-.32,1.01-.6,2.04-.81,3.12-4.34,29.82,23.69,63.32,47.01,79.57,13.29,9.12,29.71,17.1,45.69,15.46,19.43-2.5,25.11-19.9,18.52-40.64ZM18.96,15.01C25.84-1.42,46.72,1.22,61.19,7.57c0,0,0,0,0,0-5.35,2.66-10.44,5.78-15.28,9.3.99.38,1.98.78,2.98,1.2,5.2-3.65,10.14-6.58,15.47-9.09,5.88,2.76,11.62,6.28,17.21,10.33,0,0,0,0,0,0-5.42,2.2-10.62,4.96-15.55,8.14.8.54,1.59,1.09,2.38,1.65,5.3-3.31,10.28-5.84,15.61-7.94,8.64,6.58,16.84,14.87,23.52,23.48-2.28,5.9-5.33,11.67-8.96,17.27-9.02-12.87-20.97-24.61-34.21-33.39h0c-6.33-4.19-13.06-7.8-20.2-10.36,0,0,0,0-.01,0-8-2.9-16.74-4.69-25.2-3.13,0,0,0-.02.01-.03Zm.64,25.09c-2.52-8.37-3.27-15.43-1.62-22.15,0,0,0,0,0,0,7.86-1.97,16.14-.41,23.72,2.11,0,0,0,0,0,0,.21.07.21.08,0,0-7.95,6.3-15.33,13.65-21.59,21.56-.17-.51-.35-1.02-.51-1.52Zm11.69,20.22c-.39.53-.75,1.06-1.13,1.6-3.63-5.61-6.68-11.37-8.96-17.27,6.67-8.61,14.87-16.9,23.52-23.48,0,0,0,0,0,0,6.05,2.35,11.8,5.45,17.24,9,0,0,0,0,0,0,0,0,0,0-.01,0-11.69,8.12-22.41,18.78-30.67,30.15Zm34.66,35.5c-.52.37-1.05.74-1.57,1.11,0,0,0,0,0,0,0,0,0,0,0,0-12.58-8.69-24.01-20.16-32.58-32.58,8.43-12.31,20.35-24.18,32.59-32.58,0,0,0,0,0,0,12.58,8.69,24.01,20.16,32.58,32.58-8.2,11.89-19.08,22.96-31.01,31.47Z"/>
      </g>
    </g>
  </g>
</svg>